<svg width="136" height="56" viewBox="0 0 136 56" fill="none" xmlns="http://www.w3.org/2000/svg">
<g clip-path="url(#clip0_1207_161)">
<path d="M0 24.3354V29.2599C1.69536 29.2588 3.37431 29.5894 4.94079 30.233C6.50727 30.8766 7.93052 31.8204 9.12912 33.0106C10.3274 34.2002 11.2777 35.6127 11.9257 37.1672C12.5737 38.7217 12.9067 40.3877 12.9056 42.0699H17.8633C17.8588 37.3684 15.9755 32.8607 12.6265 29.5359C9.27759 26.2111 4.7366 24.3408 0 24.3354H0Z" fill="#109BE9"/>
<path d="M24.7934 15.4697H16.9365C20.9112 17.9699 24.279 21.3123 26.7984 25.2571V17.4584C26.798 16.9309 26.5866 16.425 26.2106 16.0521C25.8347 15.6792 25.3249 15.4697 24.7934 15.4697Z" fill="#109BE9"/>
<path d="M4.93657 15.4697H0V19.9035C5.92089 19.9096 11.5975 22.2469 15.7843 26.4026C19.9711 30.5582 22.326 36.1927 22.3323 42.0697H26.7985V37.1697C25.7887 31.7843 23.1596 26.8286 19.2572 22.9552C15.3548 19.0817 10.3622 16.472 4.93657 15.4697Z" fill="#109BE9"/>
<path d="M38.9502 18.3979H35.8035V34.1409H38.9502V18.3979Z" fill="#109BE9"/>
<path d="M50.5201 25.2186C49.9963 24.7459 49.3831 24.3812 48.7162 24.1455C47.2835 23.6462 45.7222 23.6462 44.2895 24.1455C43.6222 24.381 43.0088 24.7458 42.4848 25.2186C41.9709 25.6889 41.5604 26.2594 41.2789 26.8944C40.9879 27.5872 40.8381 28.3303 40.8381 29.0809C40.8381 29.8314 40.9879 30.5745 41.2789 31.2673C41.5593 31.9042 41.97 32.4762 42.4848 32.9473C43.0079 33.4205 43.621 33.7851 44.2881 34.0197C45.7206 34.52 47.2822 34.52 48.7148 34.0197C49.382 33.7851 49.9954 33.4205 50.5187 32.9473C51.0333 32.4761 51.444 31.904 51.7246 31.2673C52.0156 30.5745 52.1654 29.8314 52.1654 29.0809C52.1654 28.3303 52.0156 27.5872 51.7246 26.8944C51.4434 26.2596 51.0334 25.6891 50.5201 25.2186ZM48.3593 30.9348C47.8498 31.3904 47.1883 31.6425 46.5025 31.6425C45.8167 31.6425 45.1552 31.3904 44.6456 30.9348C44.2173 30.41 43.9836 29.7552 43.9836 29.0798C43.9836 28.4045 44.2173 27.7496 44.6456 27.2248C45.1552 26.7692 45.8167 26.5171 46.5025 26.5171C47.1883 26.5171 47.8498 26.7692 48.3593 27.2248C48.7876 27.7496 49.0213 28.4045 49.0213 29.0798C49.0213 29.7552 48.7876 30.41 48.3593 30.9348Z" fill="#109BE9"/>
<path d="M61.8172 25.3538H61.7778C61.6322 25.1511 61.4632 24.9659 61.2742 24.8022C61.0453 24.6012 60.7917 24.4295 60.5196 24.2912C59.8318 23.9409 59.0684 23.7624 58.2954 23.7711C57.618 23.7594 56.9481 23.9132 56.3447 24.2191C55.7825 24.5081 55.2861 24.9086 54.8863 25.3958C54.4786 25.898 54.1658 26.4693 53.9632 27.0821C53.7477 27.7135 53.6378 28.3756 53.6381 29.0421C53.6301 29.7576 53.751 30.4688 53.9949 31.1421C54.2159 31.7566 54.5605 32.3201 55.0076 32.7983C55.4531 33.2664 55.9937 33.635 56.5937 33.8798C57.246 34.1437 57.9451 34.2747 58.6494 34.2648C59.1704 34.2559 59.6854 34.1537 60.1698 33.9631C60.7131 33.7586 61.1837 33.4 61.5232 32.932H61.5655V33.912C61.5773 34.2389 61.523 34.5648 61.4059 34.8705C61.2888 35.1763 61.1112 35.4556 60.8835 35.6921C60.5947 35.9458 60.257 36.1386 59.891 36.2589C59.5249 36.3792 59.138 36.4246 58.7538 36.3921C58.1445 36.3989 57.5407 36.2782 56.9815 36.0379C56.4252 35.7912 55.9061 35.4689 55.4392 35.0803L53.698 37.6598C54.4097 38.2288 55.2416 38.6311 56.1317 38.8365C57.0125 39.0376 57.9135 39.1388 58.8172 39.1382C60.8031 39.1382 62.282 38.6419 63.2538 37.6493C64.2256 36.6567 64.7117 35.2026 64.7122 33.2869V24.021H61.8208L61.8172 25.3538ZM61.6283 29.9661C61.5041 30.2625 61.3222 30.5315 61.093 30.7578C60.8596 30.9887 60.5861 31.1755 60.2855 31.3094C59.9734 31.447 59.6358 31.5181 59.2943 31.5181C58.9529 31.5181 58.6152 31.447 58.3031 31.3094C58.0066 31.1736 57.7366 30.9869 57.5055 30.7578C57.2753 30.5296 57.0927 30.2585 56.9681 29.9602C56.8435 29.6618 56.7793 29.342 56.7793 29.019C56.7793 28.6961 56.8435 28.3763 56.9681 28.0779C57.0927 27.7795 57.2753 27.5085 57.5055 27.2802C57.7367 27.0512 58.0067 26.8642 58.3031 26.7279C58.6153 26.5908 58.9529 26.52 59.2943 26.52C59.6357 26.52 59.9733 26.5908 60.2855 26.7279C60.5859 26.8623 60.8595 27.0494 61.093 27.2802C61.4392 27.6256 61.6747 28.0649 61.7699 28.5428C61.8652 29.0207 61.8159 29.516 61.6283 29.9661Z" fill="#109BE9"/>
<path d="M76.5338 25.2186C76.0099 24.7459 75.3968 24.3812 74.7298 24.1455C73.2972 23.6462 71.7358 23.6462 70.3031 24.1455C69.6359 24.381 69.0225 24.7458 68.4985 25.2186C67.9846 25.6889 67.574 26.2594 67.2925 26.8944C67.0016 27.5872 66.8518 28.3303 66.8518 29.0809C66.8518 29.8314 67.0016 30.5745 67.2925 31.2673C67.573 31.9042 67.9836 32.4762 68.4985 32.9473C69.022 33.4206 69.6356 33.7853 70.3031 34.0197C71.7357 34.52 73.2973 34.52 74.7298 34.0197C75.3971 33.7851 76.0104 33.4205 76.5338 32.9473C77.0486 32.4762 77.4593 31.9042 77.7397 31.2673C78.0307 30.5745 78.1805 29.8314 78.1805 29.0809C78.1805 28.3303 78.0307 27.5872 77.7397 26.8944C77.4582 26.2594 77.0477 25.6889 76.5338 25.2186ZM74.373 30.9348C73.8634 31.3904 73.2019 31.6425 72.5161 31.6425C71.8303 31.6425 71.1688 31.3904 70.6593 30.9348C70.231 30.41 69.9973 29.7552 69.9973 29.0798C69.9973 28.4045 70.231 27.7496 70.6593 27.2248C71.1688 26.7692 71.8303 26.5171 72.5161 26.5171C73.2019 26.5171 73.8634 26.7692 74.373 27.2248C74.8013 27.7496 75.035 28.4045 75.035 29.0798C75.035 29.7552 74.8013 30.41 74.373 30.9348Z" fill="#109BE9"/>
<path d="M82.3548 24.0908H80.6672V34.1407H82.3548V24.0908Z" fill="#109BE9"/>
<path d="M81.5114 18.9377C81.3477 18.9346 81.1852 18.9655 81.0343 19.0283C80.8833 19.0911 80.7473 19.1844 80.6348 19.3024C80.4632 19.4741 80.3466 19.6924 80.2998 19.9298C80.253 20.1671 80.2781 20.4129 80.3718 20.6362C80.4655 20.8594 80.6237 21.0502 80.8264 21.1843C81.0291 21.3185 81.2673 21.3901 81.511 21.3901C81.7547 21.3901 81.9929 21.3185 82.1956 21.1843C82.3983 21.0502 82.5565 20.8594 82.6502 20.6362C82.7439 20.4129 82.769 20.1671 82.7222 19.9298C82.6754 19.6924 82.5588 19.4741 82.3872 19.3024C82.2749 19.1844 82.139 19.091 81.9881 19.0282C81.8373 18.9654 81.6749 18.9346 81.5114 18.9377Z" fill="#109BE9"/>
<path d="M94.8379 25.3394C94.3632 24.8583 93.7921 24.4813 93.1616 24.2327C92.4696 23.962 91.7312 23.8272 90.9874 23.8358C90.2867 23.8279 89.5939 23.9825 88.9641 24.2873C88.3438 24.5935 87.7947 25.0248 87.352 25.5536H87.3068V24.0906H85.6213V39.037H87.3068V32.359H87.3498C87.7081 32.9715 88.2302 33.4735 88.8583 33.8094C89.5875 34.2147 90.4128 34.4187 91.2483 34.4002C91.9324 34.4045 92.61 34.2692 93.2392 34.0026C93.8467 33.7469 94.395 33.3705 94.8506 32.8966C95.3132 32.4124 95.677 31.8438 95.9218 31.2222C96.4409 29.8663 96.4409 28.3684 95.9218 27.0124C95.6749 26.3895 95.3065 25.821 94.8379 25.3394ZM94.2427 30.5894C94.0854 31.027 93.8393 31.4279 93.5197 31.7673C93.2001 32.1068 92.8137 32.3775 92.3844 32.5627C91.4354 32.9485 90.3716 32.9485 89.4225 32.5627C88.9926 32.3775 88.6057 32.1065 88.2857 31.7667C87.9657 31.4269 87.7194 31.0255 87.5621 30.5873C87.2308 29.6349 87.2308 28.5998 87.5621 27.6473C87.7194 27.2092 87.9657 26.8077 88.2857 26.4679C88.6057 26.1281 88.9926 25.8572 89.4225 25.6719C90.3716 25.2861 91.4354 25.2861 92.3844 25.6719C92.8143 25.8572 93.2012 26.1281 93.5212 26.4679C93.8412 26.8077 94.0875 27.2092 94.2448 27.6473C94.5761 28.5998 94.5761 29.6349 94.2448 30.5873L94.2427 30.5894Z" fill="#109BE9"/>
<path d="M104.812 29.1195C104.491 28.8815 104.134 28.6966 103.754 28.5721C103.337 28.4324 102.91 28.321 102.477 28.2389C102.153 28.1839 101.832 28.1124 101.515 28.0247C101.232 27.9486 100.957 27.8478 100.693 27.7237C100.481 27.6283 100.289 27.4933 100.128 27.3261C99.9916 27.1766 99.9182 26.9806 99.9231 26.7787C99.9198 26.5609 99.9841 26.3473 100.107 26.1669C100.228 25.9887 100.387 25.8386 100.572 25.7266C100.77 25.6078 100.986 25.5209 101.211 25.469C101.442 25.4123 101.678 25.3834 101.916 25.3829C102.368 25.369 102.815 25.4846 103.203 25.7161C103.553 25.9348 103.846 26.2327 104.058 26.5855L105.464 25.6622C105.152 25.052 104.646 24.561 104.025 24.2657C103.398 23.9769 102.715 23.8303 102.024 23.8366C101.556 23.8355 101.09 23.9006 100.64 24.0298C100.208 24.1519 99.7992 24.3409 99.4273 24.5898C99.0718 24.8281 98.7758 25.1439 98.562 25.5131C98.3407 25.9063 98.2287 26.3508 98.2376 26.8011C98.22 27.2419 98.3208 27.6794 98.5296 28.0688C98.7201 28.3945 98.986 28.6705 99.3053 28.8738C99.6579 29.0945 100.04 29.2644 100.441 29.3785C100.874 29.5073 101.328 29.6219 101.804 29.7222C102.079 29.7796 102.345 29.844 102.604 29.9154C102.847 29.9802 103.08 30.0777 103.297 30.2052C103.488 30.3175 103.653 30.4674 103.784 30.6455C103.914 30.8428 103.978 31.0757 103.968 31.3112C103.975 31.5587 103.907 31.8027 103.773 32.0112C103.639 32.2088 103.461 32.3739 103.254 32.4942C103.03 32.6269 102.785 32.7216 102.529 32.7742C102.269 32.8308 102.005 32.8597 101.739 32.8603C101.213 32.8805 100.692 32.7539 100.236 32.4949C99.8153 32.2295 99.4455 31.8925 99.1431 31.4995L97.8032 32.5306C98.218 33.17 98.8068 33.6797 99.5014 34.0006C100.213 34.2811 100.975 34.4163 101.74 34.3982C102.239 34.3986 102.736 34.3411 103.221 34.2267C103.683 34.1208 104.122 33.9355 104.52 33.6793C104.899 33.4293 105.213 33.0934 105.437 32.6993C105.679 32.2521 105.798 31.7495 105.784 31.2419C105.797 30.8055 105.708 30.372 105.524 29.9756C105.356 29.6396 105.112 29.3466 104.812 29.1195Z" fill="#109BE9"/>
<path d="M116.97 31.7572V24.0908H115.282V28.9908C115.288 29.5191 115.226 30.0459 115.098 30.5588C114.99 30.9985 114.799 31.4137 114.534 31.7824C114.283 32.1252 113.948 32.3986 113.56 32.5769C113.115 32.7733 112.631 32.869 112.143 32.8569C111.814 32.8834 111.483 32.8309 111.178 32.7038C110.873 32.5768 110.603 32.3789 110.391 32.1268C109.986 31.5414 109.787 30.839 109.827 30.1297V24.0908H108.139V30.297C108.134 30.8596 108.21 31.42 108.366 31.9609C108.502 32.4405 108.743 32.8844 109.071 33.2608C109.4 33.6288 109.811 33.9163 110.27 34.1008C110.818 34.313 111.403 34.4153 111.99 34.4018C112.386 34.405 112.78 34.3505 113.159 34.2401C113.501 34.1411 113.829 33.9968 114.132 33.811C114.408 33.6423 114.659 33.4364 114.878 33.1992C115.075 32.9882 115.24 32.7492 115.366 32.4901H115.409C115.409 32.7771 115.416 33.0571 115.43 33.3301C115.445 33.6031 115.452 33.8752 115.452 34.1463H117.053C117.053 33.8164 117.039 33.4512 117.009 33.0508C116.98 32.6504 116.967 32.2192 116.97 31.7572Z" fill="#109BE9"/>
<path d="M135.208 26.2925C135.096 25.8062 134.874 25.3515 134.559 24.9625C134.241 24.5861 133.832 24.2969 133.369 24.1225C132.787 23.9139 132.17 23.8156 131.552 23.8327C130.88 23.8036 130.215 23.9797 129.648 24.3374C129.122 24.7121 128.68 25.1912 128.35 25.7444C128.264 25.5722 128.152 25.3753 128.014 25.1536C127.861 24.9142 127.667 24.7034 127.441 24.5306C127.163 24.3208 126.854 24.1555 126.524 24.0406C126.082 23.8929 125.616 23.8237 125.15 23.8362C124.755 23.833 124.361 23.8874 123.982 23.9979C123.639 24.0969 123.312 24.2412 123.008 24.427C122.732 24.596 122.481 24.8018 122.262 25.0388C122.065 25.2498 121.901 25.4888 121.775 25.7479H121.732C121.732 25.4609 121.724 25.1823 121.71 24.9079C121.696 24.6335 121.688 24.364 121.688 24.0917H120.088C120.088 24.4216 120.102 24.7868 120.131 25.1872C120.159 25.5876 120.174 26.0172 120.174 26.4759V34.1416H121.863V29.2458C121.857 28.7173 121.919 28.1902 122.047 27.6771C122.154 27.2372 122.346 26.8219 122.611 26.4535C122.862 26.1106 123.197 25.8371 123.584 25.659C124.03 25.4625 124.514 25.3668 125.002 25.379C125.29 25.3545 125.581 25.4064 125.843 25.5293C126.105 25.6523 126.33 25.8419 126.494 26.079C126.856 26.8155 127.013 27.6349 126.949 28.452V34.143H128.633V28.3428C128.628 27.9295 128.698 27.5186 128.839 27.1297C128.964 26.7849 129.155 26.4677 129.403 26.1959C129.637 25.9414 129.92 25.7368 130.236 25.5946C130.555 25.4511 130.902 25.3778 131.253 25.3797C131.67 25.3647 132.084 25.4454 132.464 25.6156C132.764 25.7593 133.024 25.9734 133.221 26.2393C133.411 26.5025 133.544 26.8022 133.611 27.1192C133.683 27.4509 133.719 27.7893 133.719 28.1286V34.1416H135.403V28.0425C135.409 27.4535 135.344 26.8659 135.208 26.2925Z" fill="#109BE9"/>
</g>
<defs>
<clipPath id="clip0_1207_161">
<rect width="135.403" height="56" fill="white"/>
</clipPath>
</defs>
</svg>
